<?xml version="1.0" encoding="UTF-8"?>
<svg width="418px" height="612px" viewBox="0 0 418 612" version="1.1" xmlns="http://www.w3.org/2000/svg" xmlns:xlink="http://www.w3.org/1999/xlink">
    <!-- Generator: Sketch 41 (35326) - http://www.bohemiancoding.com/sketch -->
    <title>people</title>
    <desc>Created with Sketch.</desc>
    <defs></defs>
    <g id="Page-1" stroke="none" stroke-width="1" fill="none" fill-rule="evenodd">
        <g id="people">
            <g id="Group">
                <path d="M406.48,350.793 L307.08,251.379 C312.258,244.304 315.326,235.591 315.326,226.171 C315.326,212.811 309.167,200.866 299.542,193.015 C304.74,181.087 307.435,168.159 307.597,154.499 C320.575,151.565 330.347,139.877 330.347,126.084 C330.347,112.281 320.571,100.587 307.59,97.653 C307.152,71.622 296.965,47.339 278.743,29.118 C259.967,10.34 234.998,0 208.433,0 C154.136,0 109.891,43.73 109.033,97.801 C96.299,100.969 86.99,112.449 86.99,126.084 C86.99,139.71 96.294,151.179 109.025,154.35 C109.178,167.795 112.029,180.845 117.527,193.232 C108.056,201.085 102.012,212.935 102.012,226.171 C102.012,235.766 105.187,244.632 110.543,251.776 L11.543,350.79 C4.301,358.023 0.313,367.641 0.313,377.872 C0.313,388.104 4.301,397.721 11.54,404.951 C18.776,412.188 28.394,416.175 38.619,416.175 C48.845,416.175 58.462,412.19 65.698,404.953 L103.481,367.183 C106.031,436.648 113.715,505.885 126.344,572.554 L133.365,612 L283.17,612 L289.519,577.399 C302.999,508.961 311.259,438.39 314.102,367.717 L352.309,405.486 C367.19,420.349 391.491,420.207 406.48,405.218 C413.707,397.99 417.687,388.317 417.687,378.013 C417.688,367.7 413.707,358.019 406.48,350.793 Z M303.195,226.171 C303.195,243.071 289.446,256.819 272.547,256.819 C255.647,256.819 241.899,243.07 241.899,226.171 C241.899,209.272 255.648,195.523 272.547,195.523 C289.446,195.523 303.195,209.271 303.195,226.171 Z M145.318,144.458 C148.351,155.019 157.891,162.789 169.397,162.789 C183.276,162.789 194.506,151.498 194.506,137.619 C194.506,123.74 183.306,112.449 169.427,112.449 C157.921,112.449 148.35,120.219 145.317,130.782 L145.317,124.2 C145.317,89.135 173.938,60.608 209.003,60.608 C244.068,60.608 272.689,89.135 272.689,124.2 L272.689,130.708 C269.656,120.183 259.771,112.45 248.293,112.45 C234.414,112.45 223.017,123.741 223.017,137.62 C223.017,151.498 234.468,162.79 248.347,162.79 C259.826,162.79 269.656,155.057 272.689,144.533 L272.689,183.4 C263.591,183.458 255.824,186.078 249.122,190.539 C248.641,189.528 246.888,186.759 246.888,186.759 C238.823,173.502 224.232,165.297 208.635,165.297 C192.935,165.297 178.216,173.69 170.173,187.216 C170.073,187.368 168.974,189.544 168.5,190.509 C161.807,186.066 152.898,183.457 145.317,183.4 L145.317,144.459 L145.318,144.459 L145.318,144.458 Z M156.238,137.621 C156.238,130.431 162.087,124.582 169.277,124.582 C176.466,124.582 182.316,130.431 182.316,137.621 C182.316,144.81 176.467,150.66 169.277,150.66 C162.088,150.659 156.238,144.81 156.238,137.621 Z M261.118,137.621 C261.118,144.81 255.269,150.66 248.079,150.66 C240.89,150.66 235.04,144.811 235.04,137.621 C235.04,130.431 240.888,124.582 248.079,124.582 C255.27,124.582 261.118,130.431 261.118,137.621 Z M177.891,199.106 C178.176,197.712 180.516,193.555 180.516,193.555 C186.363,183.606 197.137,177.424 208.632,177.424 C219.266,177.424 229.056,182.784 235.306,191.215 C237.314,193.923 238.716,197.374 239.329,199.259 C233.358,206.615 229.77,215.981 229.77,226.172 C229.77,230.093 230.311,233.889 231.305,237.499 C223.966,239.467 216.384,240.479 208.678,240.479 C200.964,240.479 193.378,239.468 186.038,237.499 C187.031,233.889 187.571,230.093 187.571,226.172 C187.57,215.91 183.935,206.484 177.891,199.106 Z M318.151,126.083 C318.151,133.146 313.632,139.254 307.567,141.804 L307.567,110.348 C313.632,112.902 318.151,119.014 318.151,126.083 Z M295.436,99.396 L295.436,153.211 C295.436,165.104 293.494,176.334 289.213,186.699 C287.709,186.068 286.338,185.53 284.822,185.072 L284.822,124.202 C284.822,84.629 254.495,52.068 215.07,48.775 L215.07,12.408 C236.299,13.976 255.206,22.799 270.101,37.693 C286.438,54.032 295.436,75.944 295.436,99.396 Z M99.055,126.083 C99.055,119.234 102.861,113.315 108.926,110.618 L108.926,141.535 C102.861,138.839 99.055,132.927 99.055,126.083 Z M121.057,153.211 L121.057,99.396 C121.057,53.101 157.449,15.129 202.939,12.316 L202.939,48.713 C163.514,51.621 133.187,84.355 133.187,124.202 L133.187,185.074 C131.671,185.565 129.674,186.151 128.068,186.839 C123.529,176.095 121.057,164.814 121.057,153.211 Z M144.791,195.523 C161.691,195.523 175.439,209.272 175.439,226.171 C175.439,243.07 161.69,256.819 144.791,256.819 C127.892,256.819 114.143,243.07 114.143,226.171 C114.141,209.271 127.891,195.523 144.791,195.523 Z M57.121,396.374 C52.175,401.32 45.604,404.044 38.619,404.044 C31.635,404.044 25.064,401.321 20.115,396.371 C15.167,391.429 12.442,384.86 12.442,377.872 C12.442,370.883 15.167,364.314 20.118,359.37 L33.926,345.559 L71.66,381.839 L57.121,396.374 Z M243.513,572.606 C258.849,572.606 271.385,584.705 272.213,599.868 L214.814,599.868 C215.642,584.706 228.177,572.606 243.513,572.606 Z M145.124,599.869 C145.952,584.706 158.487,572.607 173.824,572.607 C189.161,572.607 201.697,584.706 202.524,599.869 L145.124,599.869 L145.124,599.869 Z M302.886,339.379 L302.464,353.322 C300.211,427.985 291.851,502.484 277.604,574.817 L277.123,577.408 C269.729,566.777 257.391,559.864 243.48,559.864 C232.467,559.864 222.652,564.202 215.07,571.28 L215.07,458.85 L236.299,458.85 L236.299,446.719 L181.71,446.719 L181.71,458.85 L202.939,458.85 L202.939,572.069 C195.357,564.524 185.208,559.864 173.79,559.864 C159.567,559.864 147.039,567.089 139.704,578.127 L138.262,570.046 C124.892,499.47 117.121,426.387 115.155,352.828 L114.78,338.729 L80.236,373.262 L42.5,336.981 L119.107,260.362 C126.264,265.751 135.157,268.951 144.786,268.951 C160.103,268.951 173.557,260.855 181.116,248.723 C190.029,251.293 199.273,252.609 208.672,252.609 C218.063,252.609 227.302,251.293 236.213,248.723 C243.77,260.855 257.226,268.951 272.543,268.951 C282.346,268.951 291.382,265.629 298.604,260.062 L376.977,338.448 L338.899,375.058 L302.886,339.379 Z M397.902,396.601 C387.639,406.864 371.032,406.965 360.862,396.809 L347.524,383.597 L385.56,347.027 L397.901,359.372 C402.837,364.308 405.555,370.922 405.555,377.994 C405.557,385.056 402.838,391.664 397.902,396.601 Z" id="Shape" fill="#000000"></path>
                <path d="M239.616,292.435 L234.366,289.292 L216.596,319.572 C214.156,318.785 211.559,318.351 208.86,318.351 C206.266,318.351 203.764,318.747 201.406,319.475 L183.636,289.174 L178.397,292.267 C160.202,303.012 148.9,322.803 148.9,343.918 C148.9,344.305 149.17,350.931 149.17,350.931 L184.592,350.687 C185.896,355.172 188.413,359.133 191.763,362.216 L173.961,393.057 L179.267,396.074 C188.244,401.18 198.477,403.877 208.86,403.877 C219.365,403.877 229.694,401.123 238.732,395.913 L243.991,392.882 L226.173,362.023 C229.413,358.969 231.85,355.083 233.128,350.696 L268.556,350.946 C268.556,350.946 268.821,344.311 268.821,343.918 C268.821,322.947 257.63,303.221 239.616,292.435 Z M222.018,343.639 C222.018,350.893 216.115,356.796 208.861,356.796 C201.607,356.796 195.704,350.893 195.704,343.639 C195.704,336.383 201.607,330.482 208.861,330.482 C216.115,330.482 222.018,336.383 222.018,343.639 Z M161.319,338.715 C162.74,325.887 169.354,314.073 179.527,306.144 L189.905,323.84 C185.749,327.785 182.89,332.956 181.768,338.576 L161.319,338.715 Z M190.769,388.204 L201.038,370.411 C206.197,371.929 211.83,371.897 216.958,370.326 L227.218,388.094 C215.755,392.856 202.286,392.901 190.769,388.204 Z M235.973,338.583 C234.892,333.02 232.131,327.955 228.046,324.029 L238.434,306.327 C248.469,314.262 254.995,326.008 256.404,338.725 L235.973,338.583 Z" id="Shape" fill="#E64C3B"></path>
            </g>
        </g>
    </g>
</svg>