<?xml version="1.0" encoding="UTF-8"?>
<svg width="1489px" height="492px" viewBox="0 0 1489 492" version="1.1" xmlns="http://www.w3.org/2000/svg" xmlns:xlink="http://www.w3.org/1999/xlink">
    <!-- Generator: Sketch 41 (35326) - http://www.bohemiancoding.com/sketch -->
    <title>Group 2</title>
    <desc>Created with Sketch.</desc>
    <defs></defs>
    <g id="Page-1" stroke="none" stroke-width="1" fill="none" fill-rule="evenodd">
        <g id="Group-2">
            <g id="logo-reboy" fill="#000000">
                <g id="Page-1">
                    <g id="people">
                        <g id="Group">
                            <path d="M326.739904,282.010059 L246.839426,202.089 C251.001646,196.401255 253.467789,189.396686 253.467789,181.823745 C253.467789,171.083353 248.517014,161.48051 240.780172,155.168922 C244.958469,145.579745 247.124785,135.186647 247.255005,124.205078 C257.687081,121.846373 265.542086,112.450137 265.542086,101.361647 C265.542086,90.2651176 257.683866,80.8640588 247.249378,78.5053529 C246.897301,57.5784706 238.708708,38.0568431 224.061359,23.4085882 C208.968689,8.31254902 188.897914,0 167.54423,0 C123.898794,0 88.3334354,35.1554902 87.6437512,78.6243333 C77.4078086,81.1711569 69.9249761,90.4001765 69.9249761,101.361647 C69.9249761,112.315882 77.4037895,121.536059 87.6373206,124.085294 C87.7603062,134.89402 90.0520191,145.385196 94.4714641,155.343373 C86.8584115,161.656569 82.0000766,171.183039 82.0000766,181.823745 C82.0000766,189.537373 84.5522297,196.664941 88.8575311,202.408157 L9.27858373,282.007647 C3.45726316,287.822412 0.251598086,295.554529 0.251598086,303.779451 C0.251598086,312.005176 3.45726316,319.73649 9.27617225,325.548843 C15.0926699,331.366824 22.8238852,334.572059 31.0430239,334.572059 C39.2629665,334.572059 46.993378,331.368431 52.8098756,325.550451 L83.1808995,295.186333 C85.2306603,351.030745 91.4072727,406.691863 101.558813,460.28851 L107.202488,492 L227.619904,492 L232.723407,464.18351 C243.559005,409.164725 250.198622,352.431176 252.483904,295.615627 L283.195751,325.978941 C295.157512,337.927627 314.69133,337.813471 326.739904,325.76349 C332.549167,319.952745 335.748402,312.176412 335.748402,303.892804 C335.749206,295.601961 332.549167,287.819196 326.739904,282.010059 Z M243.716555,181.823745 C243.716555,195.41002 232.664727,206.462333 219.080842,206.462333 C205.496153,206.462333 194.445129,195.409216 194.445129,181.823745 C194.445129,168.238275 205.496957,157.185157 219.080842,157.185157 C232.664727,157.185157 243.716555,168.237471 243.716555,181.823745 Z M116.810641,116.132902 C119.248651,124.623118 126.917167,130.869588 136.16601,130.869588 C147.322335,130.869588 156.349321,121.79251 156.349321,110.634882 C156.349321,99.4772549 147.34645,90.4001765 136.190124,90.4001765 C126.941282,90.4001765 119.247847,96.6466471 116.809837,105.138471 L116.809837,99.8470588 C116.809837,71.657549 139.816191,48.7240784 168.002411,48.7240784 C196.188632,48.7240784 219.194986,71.657549 219.194986,99.8470588 L219.194986,105.07898 C216.756976,96.6177059 208.811139,90.4009804 199.584804,90.4009804 C188.428478,90.4009804 179.267254,99.4780588 179.267254,110.635686 C179.267254,121.79251 188.471885,130.870392 199.628211,130.870392 C208.855349,130.870392 216.756976,124.653667 219.194986,116.193196 L219.194986,147.439216 C211.881761,147.485843 205.638431,149.592118 200.251177,153.178412 C199.864536,152.365647 198.455426,150.139588 198.455426,150.139588 C191.972555,139.482 180.243904,132.885824 167.706603,132.885824 C155.086507,132.885824 143.254967,139.633137 136.78978,150.50698 C136.709397,150.629176 135.82599,152.37851 135.444976,153.154294 C130.064957,149.582471 122.903656,147.485039 116.809837,147.439216 L116.809837,116.133706 L116.810641,116.133706 L116.810641,116.132902 Z M125.58844,110.63649 C125.58844,104.856294 130.290029,100.154157 136.06955,100.154157 C141.848268,100.154157 146.55066,104.856294 146.55066,110.63649 C146.55066,116.415882 141.849072,121.118824 136.06955,121.118824 C130.290833,121.11802 125.58844,116.415882 125.58844,110.63649 Z M209.893895,110.63649 C209.893895,116.415882 205.192306,121.118824 199.412785,121.118824 C193.634067,121.118824 188.931675,116.416686 188.931675,110.63649 C188.931675,104.856294 193.632459,100.154157 199.412785,100.154157 C205.19311,100.154157 209.893895,104.856294 209.893895,110.63649 Z M142.993722,160.065608 C143.222813,158.944941 145.10377,155.603039 145.10377,155.603039 C149.803751,147.604824 158.464191,142.63498 167.704191,142.63498 C176.252096,142.63498 184.121569,146.944 189.145493,153.721863 C190.759579,155.898882 191.886545,158.673216 192.379292,160.188608 C187.579636,166.102255 184.695502,173.631784 184.695502,181.824549 C184.695502,184.976725 185.130373,188.028412 185.929378,190.930569 C180.030086,192.512686 173.935464,193.326255 167.741167,193.326255 C161.54044,193.326255 155.442603,192.51349 149.542507,190.930569 C150.340708,188.028412 150.774775,184.976725 150.774775,181.824549 C150.773971,173.574706 147.852057,165.996941 142.993722,160.065608 Z M255.738603,101.360843 C255.738603,107.038941 252.106105,111.949294 247.23089,113.999294 L247.23089,88.7111373 C252.106105,90.7643529 255.738603,95.6779216 255.738603,101.360843 Z M237.479656,79.9065882 L237.479656,123.169627 C237.479656,132.730667 235.918622,141.758706 232.477435,150.091353 C231.268478,149.584078 230.166431,149.151569 228.947828,148.783373 L228.947828,99.8486667 C228.947828,68.0350784 204.570144,41.8585882 172.879234,39.2112745 L172.879234,9.97505882 C189.943694,11.2356078 205.141665,18.3286078 217.114679,30.3022157 C230.246813,43.4374902 237.479656,61.0530196 237.479656,79.9065882 Z M79.6231579,101.360843 C79.6231579,95.8547843 82.6825263,91.0963725 87.5577416,88.9281961 L87.5577416,113.783039 C82.6825263,111.615667 79.6231579,106.862882 79.6231579,101.360843 Z M97.3089761,123.169627 L97.3089761,79.9065882 C97.3089761,42.6890392 126.561876,12.1625294 163.128,9.90109804 L163.128,39.1614314 C131.437091,41.4992353 107.059407,67.8148039 107.059407,99.8486667 L107.059407,148.78498 C105.840804,149.179706 104.23556,149.650804 102.944612,150.203902 C99.2960383,141.566569 97.3089761,132.497529 97.3089761,123.169627 Z M116.387024,157.185157 C129.971713,157.185157 141.022737,168.238275 141.022737,181.823745 C141.022737,195.409216 129.970909,206.462333 116.387024,206.462333 C102.803139,206.462333 91.751311,195.409216 91.751311,181.823745 C91.7497033,168.237471 102.802335,157.185157 116.387024,157.185157 Z M45.915445,318.653608 C41.9397129,322.629804 36.6577608,324.819686 31.0430239,324.819686 C25.4290909,324.819686 20.1471388,322.630608 16.1689952,318.651196 C12.1916555,314.678216 10.0012249,309.397255 10.0012249,303.779451 C10.0012249,298.160843 12.1916555,292.879882 16.1714067,288.905294 L27.2706603,277.802333 L57.6022967,306.968608 L45.915445,318.653608 Z M195.742507,460.330314 C208.07001,460.330314 218.146794,470.056961 218.812364,482.246824 L172.673455,482.246824 C173.339024,470.057765 183.415005,460.330314 195.742507,460.330314 Z M116.654699,482.247627 C117.320268,470.057765 127.396249,460.331118 139.724555,460.331118 C152.052861,460.331118 162.129646,470.057765 162.794411,482.247627 L116.654699,482.247627 L116.654699,482.247627 Z M243.468172,272.834098 L243.128957,284.043176 C241.317933,344.066373 234.597933,403.957725 223.145799,462.107784 L222.759158,464.190745 C216.815656,455.644255 206.898029,450.086745 195.715981,450.086745 C186.863426,450.086745 178.973856,453.574157 172.879234,459.264314 L172.879234,368.879412 L189.943694,368.879412 L189.943694,359.127039 L146.063541,359.127039 L146.063541,368.879412 L163.128,368.879412 L163.128,459.898608 C157.033378,453.83302 148.87533,450.086745 139.697225,450.086745 C128.264383,450.086745 118.194029,455.895078 112.297952,464.768765 L111.138833,458.272275 C100.391656,401.534706 94.14511,342.781706 92.5647847,283.646039 L92.2633493,272.311549 L64.4959234,300.073373 L34.1626794,270.906294 L95.741512,209.310627 C101.494507,213.642961 108.642947,216.21551 116.383005,216.21551 C128.695234,216.21551 139.509933,209.706961 145.586067,199.953784 C152.750584,202.019863 160.181167,203.077824 167.736344,203.077824 C175.285091,203.077824 182.711656,202.019863 189.874565,199.953784 C195.949091,209.706961 206.765397,216.21551 219.077627,216.21551 C226.95755,216.21551 234.220938,213.544882 240.026182,209.069451 L303.024574,272.085647 L272.416421,301.517216 L243.468172,272.834098 Z M319.84467,318.836098 C311.594986,327.086745 298.245818,327.167941 290.07089,319.003314 L279.349435,308.381902 L309.923828,278.98249 L319.843866,288.906902 C323.81156,292.875059 325.996364,298.192196 325.996364,303.877529 C325.997971,309.554824 323.812364,314.867137 319.84467,318.836098 Z" id="Shape"></path>
                        </g>
                    </g>
                </g>
            </g>
            <text id="reeakt" font-family="Montserrat-Regular, Montserrat" font-size="288" font-weight="normal" letter-spacing="28.8000011" fill="#000000">
                <tspan x="454.215993" y="350">reeakt</tspan>
            </text>
            <g id="logo" transform="translate(121.000000, 238.000000)">
                <g id="Layer_2">
                    <ellipse id="Oval" fill="#303F9F" cx="46.7105143" cy="41.2075292" rx="8.74897588" ry="8.72926834"></ellipse>
                    <path d="M47.0050575,23.5998407 C58.751744,23.5998407 69.664115,25.2815912 77.8919926,28.1077673 C87.8054174,31.5128553 93.9005937,36.6745157 93.9005937,41.3482683 C93.9005937,46.2188197 87.4407532,51.7020398 76.7952096,55.2212746 C68.7466122,57.8819727 58.1558293,59.2707002 47.0050575,59.2707002 C35.5726345,59.2707002 24.7467644,57.9670608 16.6093989,55.1918679 C6.31195176,51.6801153 0.109521336,46.1257275 0.109521336,41.3482683 C0.109521336,36.7124486 5.92915028,31.5908092 15.7032319,28.1907673 C23.9618033,25.3181321 35.1436178,23.5998407 47.0050575,23.5998407 Z" id="Shape" stroke="#303F9F" stroke-width="4"></path>
                    <path d="M31.5198219,32.5252117 C37.3881076,22.3724151 44.2998108,13.7807841 50.8639406,8.08110273 C58.772846,1.21385325 66.2992987,-1.47572956 70.3571688,0.8590587 C74.5859481,3.29215933 76.1195955,11.6149539 73.8567941,22.574086 C72.1459592,30.8598176 68.0608831,40.7074109 62.4902931,50.3453291 C56.7789647,60.2266792 50.2389017,68.932283 43.7640631,74.5792411 C35.5707161,81.7252453 27.6497774,84.3111216 23.501744,81.9244801 C19.4768349,79.6084843 17.9374323,72.0199874 19.8683562,61.8734549 C21.4998404,53.3002683 25.5941596,42.7773648 31.5198219,32.5252117 Z" id="Shape" stroke="#303F9F" stroke-width="4"></path>
                    <path d="M31.5346456,50.3710818 C25.6494434,40.2280294 21.6409276,29.962652 19.9700297,21.4420147 C17.9567904,11.1759413 19.3802189,3.32661216 23.4342523,0.985037736 C27.658846,-1.45519706 35.6516364,1.37550314 44.0375176,8.80478616 C50.3778961,14.4216415 56.8884861,22.8707631 62.475295,32.4994591 C68.2031911,42.371239 72.4963228,52.372304 74.1661744,60.7894088 C76.2793432,71.4407275 74.5688571,79.5790776 70.4248349,81.9726792 C66.4037625,84.2952872 59.045603,81.83626 51.1994805,75.0996876 C44.5701262,69.4078365 37.4775733,60.6133166 31.5346456,50.3710818 Z" id="Shape" stroke="#303F9F" stroke-width="4"></path>
                </g>
            </g>
        </g>
    </g>
</svg>